<svg width="389" height="212" viewBox="0 0 389 212" fill="none" xmlns="http://www.w3.org/2000/svg">
<g filter="url(#filter0_d_11_320)">
<path fill-rule="evenodd" clip-rule="evenodd" d="M276 7.5C276 17.165 268.165 25 258.5 25C248.835 25 241 17.165 241 7.5C241 7.33278 241.002 7.1661 241.007 7H37C22.0883 7 10 19.0883 10 34V172C10 186.912 22.0883 199 37 199H241.007C241.272 189.566 249.002 182 258.5 182C267.998 182 275.728 189.566 275.993 199H352C366.912 199 379 186.912 379 172V34C379 19.0883 366.912 7 352 7H275.993C275.998 7.1661 276 7.33278 276 7.5Z" fill="white"/>
</g>
<line x1="257.5" y1="25" x2="257.5" y2="182" stroke="#ECECEC"/>
<defs>
<filter id="filter0_d_11_320" x="0" y="0" width="389" height="212" filterUnits="userSpaceOnUse" color-interpolation-filters="sRGB">
<feFlood flood-opacity="0" result="BackgroundImageFix"/>
<feColorMatrix in="SourceAlpha" type="matrix" values="0 0 0 0 0 0 0 0 0 0 0 0 0 0 0 0 0 0 127 0" result="hardAlpha"/>
<feOffset dy="3"/>
<feGaussianBlur stdDeviation="5"/>
<feComposite in2="hardAlpha" operator="out"/>
<feColorMatrix type="matrix" values="0 0 0 0 0 0 0 0 0 0 0 0 0 0 0 0 0 0 0.25 0"/>
<feBlend mode="normal" in2="BackgroundImageFix" result="effect1_dropShadow_11_320"/>
<feBlend mode="normal" in="SourceGraphic" in2="effect1_dropShadow_11_320" result="shape"/>
</filter>
</defs>
</svg>
