<svg width="36" height="23" viewBox="0 0 36 23" fill="none" xmlns="http://www.w3.org/2000/svg">
<g clip-path="url(#clip0_16_78)">
<path d="M35.2446 6.76525C36.2491 6.20372 36.2491 5.29181 35.2446 4.73029L27.5304 0.417786C26.5259 -0.143738 24.8946 -0.143738 23.8902 0.417786C22.8857 0.979309 22.8857 1.89122 23.8902 2.45275L27.217 4.31251H2.57143C1.14911 4.31251 0 4.9549 0 5.75001C0 6.54513 1.14911 7.18751 2.57143 7.18751H27.217L23.8902 9.04728C22.8857 9.6088 22.8857 10.5207 23.8902 11.0822C24.8946 11.6438 26.5259 11.6438 27.5304 11.0822L35.2446 6.76974V6.76525ZM8.46161 22.5777C9.46607 23.1393 11.0973 23.1393 12.1018 22.5777C13.1063 22.0162 13.1063 21.1043 12.1018 20.5428L8.78304 18.6875H33.4286C34.8509 18.6875 36 18.0451 36 17.25C36 16.4549 34.8509 15.8125 33.4286 15.8125H8.78304L12.1098 13.9527C13.1143 13.3912 13.1143 12.4793 12.1098 11.9178C11.1054 11.3563 9.47411 11.3563 8.46964 11.9178L0.755357 16.2303C-0.249107 16.7918 -0.249107 17.7037 0.755357 18.2652L8.46964 22.5777H8.46161Z" fill="black"/>
</g>
<defs>
<clipPath id="clip0_16_78">
<rect width="36" height="23" fill="white"/>
</clipPath>
</defs>
</svg>
