<svg width="51" height="50" viewBox="0 0 51 50" fill="none" xmlns="http://www.w3.org/2000/svg">
<g clip-path="url(#clip0_26_96)">
<path d="M14.7857 0C16.7612 0 18.3571 1.39648 18.3571 3.125V6.25H32.6429V3.125C32.6429 1.39648 34.2388 0 36.2143 0C38.1897 0 39.7857 1.39648 39.7857 3.125V6.25H45.1429C48.1004 6.25 50.5 8.34961 50.5 10.9375V15.625H0.5V10.9375C0.5 8.34961 2.89955 6.25 5.85714 6.25H11.2143V3.125C11.2143 1.39648 12.8103 0 14.7857 0ZM0.5 18.75H50.5V45.3125C50.5 47.9004 48.1004 50 45.1429 50H5.85714C2.89955 50 0.5 47.9004 0.5 45.3125V18.75ZM7.64286 26.5625V29.6875C7.64286 30.5469 8.44643 31.25 9.42857 31.25H13C13.9821 31.25 14.7857 30.5469 14.7857 29.6875V26.5625C14.7857 25.7031 13.9821 25 13 25H9.42857C8.44643 25 7.64286 25.7031 7.64286 26.5625ZM21.9286 26.5625V29.6875C21.9286 30.5469 22.7321 31.25 23.7143 31.25H27.2857C28.2679 31.25 29.0714 30.5469 29.0714 29.6875V26.5625C29.0714 25.7031 28.2679 25 27.2857 25H23.7143C22.7321 25 21.9286 25.7031 21.9286 26.5625ZM38 25C37.0179 25 36.2143 25.7031 36.2143 26.5625V29.6875C36.2143 30.5469 37.0179 31.25 38 31.25H41.5714C42.5536 31.25 43.3571 30.5469 43.3571 29.6875V26.5625C43.3571 25.7031 42.5536 25 41.5714 25H38ZM7.64286 39.0625V42.1875C7.64286 43.0469 8.44643 43.75 9.42857 43.75H13C13.9821 43.75 14.7857 43.0469 14.7857 42.1875V39.0625C14.7857 38.2031 13.9821 37.5 13 37.5H9.42857C8.44643 37.5 7.64286 38.2031 7.64286 39.0625ZM23.7143 37.5C22.7321 37.5 21.9286 38.2031 21.9286 39.0625V42.1875C21.9286 43.0469 22.7321 43.75 23.7143 43.75H27.2857C28.2679 43.75 29.0714 43.0469 29.0714 42.1875V39.0625C29.0714 38.2031 28.2679 37.5 27.2857 37.5H23.7143ZM36.2143 39.0625V42.1875C36.2143 43.0469 37.0179 43.75 38 43.75H41.5714C42.5536 43.75 43.3571 43.0469 43.3571 42.1875V39.0625C43.3571 38.2031 42.5536 37.5 41.5714 37.5H38C37.0179 37.5 36.2143 38.2031 36.2143 39.0625Z" fill="#FF735C"/>
</g>
<defs>
<clipPath id="clip0_26_96">
<rect width="50" height="50" fill="white" transform="translate(0.5)"/>
</clipPath>
</defs>
</svg>
