<svg width="40" height="32" viewBox="0 0 40 32" fill="none" xmlns="http://www.w3.org/2000/svg">
<path d="M39 28H34V7.09058C34 5.38682 32.6544 3.99995 31 3.99995H24V7.99995H30V32H39C39.5525 32 40 31.5525 40 31V29C40 28.4475 39.5525 28 39 28ZM19.515 0.0630642L7.515 3.17182C6.62437 3.40245 6 4.2312 6 5.18245V28H1C0.4475 28 0 28.4475 0 29V31C0 31.5525 0.4475 32 1 32H22V2.07369C22 0.724941 20.7775 -0.264436 19.515 0.0630642ZM16.5 18C15.6719 18 15 17.1043 15 16C15 14.8956 15.6719 14 16.5 14C17.3281 14 18 14.8956 18 16C18 17.1043 17.3281 18 16.5 18Z" fill="white"/>
</svg>
