<svg width="28" height="37" viewBox="0 0 28 37" fill="none" xmlns="http://www.w3.org/2000/svg">
<path d="M26.1333 0.233172L23.3333 3.47033L19.3667 0.233172C19.1652 0.0819592 18.9194 0.000123647 18.6667 0.000123647C18.4139 0.000123647 18.1681 0.0819592 17.9667 0.233172L14 3.47033L10.0333 0.233172C9.83187 0.0819592 9.58606 0.000123647 9.33333 0.000123647C9.0806 0.000123647 8.8348 0.0819592 8.63333 0.233172L4.66667 3.47033L1.86667 0.233172C1.09375 -0.337667 0 0.204269 0 1.15807V35.8419C0 36.7957 1.09375 37.3377 1.86667 36.7668L4.66667 33.5297L8.63333 36.7668C8.8348 36.918 9.0806 36.9999 9.33333 36.9999C9.58606 36.9999 9.83187 36.918 10.0333 36.7668L14 33.5297L17.9667 36.7668C18.1681 36.918 18.4139 36.9999 18.6667 36.9999C18.9194 36.9999 19.1652 36.918 19.3667 36.7668L23.3333 33.5297L26.1333 36.7668C26.899 37.3377 28 36.7957 28 35.8419V1.15807C28 0.204269 26.9062 -0.337667 26.1333 0.233172ZM23.3333 26.0148C23.3333 26.3328 23.0708 26.5929 22.75 26.5929H5.25C4.92917 26.5929 4.66667 26.3328 4.66667 26.0148V24.8587C4.66667 24.5408 4.92917 24.2806 5.25 24.2806H22.75C23.0708 24.2806 23.3333 24.5408 23.3333 24.8587V26.0148ZM23.3333 19.0781C23.3333 19.396 23.0708 19.6561 22.75 19.6561H5.25C4.92917 19.6561 4.66667 19.396 4.66667 19.0781V17.9219C4.66667 17.604 4.92917 17.3439 5.25 17.3439H22.75C23.0708 17.3439 23.3333 17.604 23.3333 17.9219V19.0781ZM23.3333 12.1413C23.3333 12.4592 23.0708 12.7194 22.75 12.7194H5.25C4.92917 12.7194 4.66667 12.4592 4.66667 12.1413V10.9852C4.66667 10.6672 4.92917 10.4071 5.25 10.4071H22.75C23.0708 10.4071 23.3333 10.6672 23.3333 10.9852V12.1413Z" fill="white"/>
</svg>
