<svg width="35" height="41" viewBox="0 0 35 41" fill="none" xmlns="http://www.w3.org/2000/svg">
<path d="M31.25 17.9375H29.375V12.1719C29.375 5.46133 24.0469 0 17.5 0C10.9531 0 5.625 5.46133 5.625 12.1719V17.9375H3.75C1.67969 17.9375 0 19.6592 0 21.7812V37.1562C0 39.2783 1.67969 41 3.75 41H31.25C33.3203 41 35 39.2783 35 37.1562V21.7812C35 19.6592 33.3203 17.9375 31.25 17.9375ZM23.125 17.9375H11.875V12.1719C11.875 8.99277 14.3984 6.40625 17.5 6.40625C20.6016 6.40625 23.125 8.99277 23.125 12.1719V17.9375Z" fill="white"/>
</svg>
