<svg width="38" height="39" viewBox="0 0 38 39" fill="none" xmlns="http://www.w3.org/2000/svg">
<path d="M38 19.5C38 30.2719 29.4927 39 19 39C8.50733 39 0 30.2719 0 19.5C0 8.73435 8.50733 0 19 0C29.4927 0 38 8.73435 38 19.5ZM19.5099 6.44758C15.3347 6.44758 12.6718 8.25267 10.5807 11.4608C10.3098 11.8764 10.4004 12.437 10.7887 12.7392L13.4471 14.8079C13.8459 15.1182 14.414 15.0444 14.7239 14.641C16.0925 12.8595 17.0309 11.8264 19.114 11.8264C20.6791 11.8264 22.6151 12.8602 22.6151 14.4178C22.6151 15.5954 21.6679 16.2001 20.1225 17.0893C18.3203 18.1262 15.9355 19.4167 15.9355 22.6452V22.9597C15.9355 23.4808 16.3471 23.9032 16.8548 23.9032H21.1452C21.6529 23.9032 22.0645 23.4808 22.0645 22.9597V22.8549C22.0645 20.6169 28.4376 20.5238 28.4376 14.4677C28.4376 9.9071 23.8282 6.44758 19.5099 6.44758ZM19 25.9476C17.0567 25.9476 15.4758 27.5701 15.4758 29.5645C15.4758 31.5589 17.0567 33.1814 19 33.1814C20.9433 33.1814 22.5242 31.5589 22.5242 29.5645C22.5242 27.5701 20.9433 25.9476 19 25.9476Z" fill="white"/>
</svg>
