<svg width="32" height="33" viewBox="0 0 32 33" fill="none" xmlns="http://www.w3.org/2000/svg">
<path d="M8.7256 0.269593C8.65592 0.184141 8.57313 0.11634 8.48197 0.0700772C8.3908 0.0238143 8.29306 0 8.19435 0C8.09564 0 7.9979 0.0238143 7.90674 0.0700772C7.81557 0.11634 7.73278 0.184141 7.6631 0.269593L3.6831 5.10544L2.26434 3.41584C2.19467 3.33039 2.11187 3.26258 2.02071 3.21632C1.92954 3.17006 1.8318 3.14624 1.73309 3.14624C1.63438 3.14624 1.53664 3.17006 1.44548 3.21632C1.35432 3.26258 1.27152 3.33039 1.20184 3.41584L0.220592 4.61659C0.150672 4.70174 0.0951939 4.80293 0.0573398 4.91435C0.0194857 5.02576 0 5.14521 0 5.26585C0 5.38649 0.0194857 5.50594 0.0573398 5.61735C0.0951939 5.72877 0.150672 5.82996 0.220592 5.91511L3.19497 9.5357C3.34344 9.70817 3.54044 9.80435 3.74528 9.80435C3.95012 9.80435 4.14713 9.70817 4.2956 9.5357L5.26997 8.34258L9.78248 2.82845C9.92307 2.65648 10.0025 2.4237 10.0036 2.1806C10.0046 1.9375 9.9272 1.7037 9.7881 1.52992L8.7256 0.269593ZM8.7256 12.4291C8.65592 12.3437 8.57313 12.2759 8.48197 12.2296C8.3908 12.1833 8.29306 12.1595 8.19435 12.1595C8.09564 12.1595 7.9979 12.1833 7.90674 12.2296C7.81557 12.2759 7.73278 12.3437 7.6631 12.4291L3.6831 17.2963L2.26434 15.6082C2.19467 15.5227 2.11187 15.4549 2.02071 15.4087C1.92954 15.3624 1.8318 15.3386 1.73309 15.3386C1.63438 15.3386 1.53664 15.3624 1.44548 15.4087C1.35432 15.4549 1.27152 15.5227 1.20184 15.6082L0.220592 16.8067C0.150672 16.8918 0.0951939 16.993 0.0573398 17.1044C0.0194857 17.2158 0 17.3353 0 17.4559C0 17.5766 0.0194857 17.696 0.0573398 17.8074C0.0951939 17.9188 0.150672 18.02 0.220592 18.1052L3.18747 21.7334C3.33583 21.9058 3.53274 22.002 3.73747 22.002C3.9422 22.002 4.13911 21.9058 4.28747 21.7334L5.26872 20.5349L9.78123 15.0185C9.92129 14.8478 10.0005 14.6163 10.0015 14.3745C10.0026 14.1327 9.92542 13.9002 9.78685 13.7276L8.7256 12.4291ZM3.99997 25.6672C2.34434 25.6672 0.963092 27.3094 0.963092 29.3336C0.963092 31.3577 2.34559 33 3.99997 33C4.79562 33 5.55868 32.6137 6.12129 31.9261C6.6839 31.2385 6.99997 30.306 6.99997 29.3336C6.99997 28.3612 6.6839 27.4286 6.12129 26.741C5.55868 26.0534 4.79562 25.6672 3.99997 25.6672ZM31 26.8893H13C12.7348 26.8893 12.4804 27.0181 12.2929 27.2473C12.1053 27.4765 12 27.7873 12 28.1114V30.5557C12 30.8799 12.1053 31.1907 12.2929 31.4199C12.4804 31.6491 12.7348 31.7779 13 31.7779H31C31.2652 31.7779 31.5196 31.6491 31.7071 31.4199C31.8946 31.1907 32 30.8799 32 30.5557V28.1114C32 27.7873 31.8946 27.4765 31.7071 27.2473C31.5196 27.0181 31.2652 26.8893 31 26.8893ZM31 2.44653H13C12.7348 2.44653 12.4804 2.57529 12.2929 2.80448C12.1053 3.03368 12 3.34454 12 3.66867V6.11295C12 6.43708 12.1053 6.74793 12.2929 6.97713C12.4804 7.20632 12.7348 7.33508 13 7.33508H31C31.2652 7.33508 31.5196 7.20632 31.7071 6.97713C31.8946 6.74793 32 6.43708 32 6.11295V3.66867C32 3.34454 31.8946 3.03368 31.7071 2.80448C31.5196 2.57529 31.2652 2.44653 31 2.44653ZM31 14.6679H13C12.7348 14.6679 12.4804 14.7967 12.2929 15.0259C12.1053 15.2551 12 15.5659 12 15.8901V18.3343C12 18.6585 12.1053 18.9693 12.2929 19.1985C12.4804 19.4277 12.7348 19.5565 13 19.5565H31C31.2652 19.5565 31.5196 19.4277 31.7071 19.1985C31.8946 18.9693 32 18.6585 32 18.3343V15.8901C32 15.5659 31.8946 15.2551 31.7071 15.0259C31.5196 14.7967 31.2652 14.6679 31 14.6679Z" fill="white"/>
</svg>
