<svg width="578" height="517" viewBox="0 0 578 517" fill="none" xmlns="http://www.w3.org/2000/svg">
<path d="M462.29 174.25C462.29 262.855 384.962 335.132 289 335.132C193.038 335.132 115.711 262.855 115.711 174.25C115.711 85.6454 193.038 13.3684 289 13.3684C384.962 13.3684 462.29 85.6454 462.29 174.25Z" fill="#42BA96" stroke="#FF735C" stroke-width="7.37566"/>
<rect x="101.612" width="374.776" height="348.5" rx="174.25" fill="#FF735C"/>
<path d="M413.925 87.125L242.153 246.854L164.075 174.25" stroke="#F8F9FA" stroke-width="18.4392" stroke-linecap="round" stroke-linejoin="round"/>
<path d="M175.624 449.112C171.771 449.112 168.325 448.613 165.288 447.616C162.251 446.619 159.599 445.191 157.332 443.332L159.372 438.844C160.959 440.023 162.545 441.02 164.132 441.836C165.764 442.607 167.509 443.196 169.368 443.604C171.227 443.967 173.312 444.148 175.624 444.148C179.659 444.148 182.651 443.4 184.6 441.904C186.549 440.408 187.524 438.413 187.524 435.92C187.524 433.789 186.844 432.157 185.484 431.024C184.124 429.891 181.744 428.984 178.344 428.304L171.204 426.876C166.807 425.969 163.52 424.496 161.344 422.456C159.213 420.416 158.148 417.651 158.148 414.16C158.148 411.304 158.873 408.811 160.324 406.68C161.82 404.549 163.905 402.895 166.58 401.716C169.255 400.537 172.36 399.948 175.896 399.948C179.296 399.948 182.401 400.469 185.212 401.512C188.023 402.509 190.425 403.983 192.42 405.932L190.448 410.284C188.317 408.38 186.073 407.02 183.716 406.204C181.404 405.343 178.775 404.912 175.828 404.912C172.111 404.912 169.164 405.728 166.988 407.36C164.857 408.947 163.792 411.123 163.792 413.888C163.792 416.109 164.472 417.855 165.832 419.124C167.192 420.348 169.436 421.277 172.564 421.912L179.772 423.34C184.396 424.292 187.796 425.72 189.972 427.624C192.148 429.528 193.236 432.203 193.236 435.648C193.236 438.277 192.511 440.612 191.06 442.652C189.655 444.692 187.637 446.279 185.008 447.412C182.379 448.545 179.251 449.112 175.624 449.112ZM214.115 449.112C210.081 449.112 207.021 448.001 204.935 445.78C202.895 443.559 201.875 440.159 201.875 435.58V414.364H207.383V435.444C207.383 438.572 208.018 440.884 209.287 442.38C210.557 443.831 212.529 444.556 215.203 444.556C218.195 444.556 220.598 443.581 222.411 441.632C224.225 439.683 225.131 437.076 225.131 433.812V414.364H230.639V448.5H225.267V440.816H226.151C225.199 443.445 223.658 445.485 221.527 446.936C219.442 448.387 216.971 449.112 214.115 449.112ZM256.013 449.112C252.659 449.112 249.735 448.387 247.241 446.936C244.793 445.485 242.889 443.423 241.529 440.748C240.215 438.073 239.557 434.9 239.557 431.228C239.557 427.511 240.237 424.36 241.597 421.776C242.957 419.147 244.861 417.152 247.309 415.792C249.803 414.432 252.704 413.752 256.013 413.752C258.189 413.752 260.297 414.137 262.337 414.908C264.423 415.679 266.145 416.767 267.505 418.172L265.533 422.116C264.173 420.801 262.677 419.827 261.045 419.192C259.459 418.557 257.895 418.24 256.353 418.24C252.817 418.24 250.075 419.351 248.125 421.572C246.176 423.793 245.201 427.035 245.201 431.296C245.201 435.512 246.176 438.776 248.125 441.088C250.075 443.4 252.817 444.556 256.353 444.556C257.849 444.556 259.391 444.261 260.977 443.672C262.609 443.083 264.128 442.108 265.533 440.748L267.505 444.624C266.1 446.075 264.355 447.185 262.269 447.956C260.184 448.727 258.099 449.112 256.013 449.112ZM289.357 449.112C286.003 449.112 283.079 448.387 280.585 446.936C278.137 445.485 276.233 443.423 274.873 440.748C273.559 438.073 272.901 434.9 272.901 431.228C272.901 427.511 273.581 424.36 274.941 421.776C276.301 419.147 278.205 417.152 280.653 415.792C283.147 414.432 286.048 413.752 289.357 413.752C291.533 413.752 293.641 414.137 295.681 414.908C297.767 415.679 299.489 416.767 300.849 418.172L298.877 422.116C297.517 420.801 296.021 419.827 294.389 419.192C292.803 418.557 291.239 418.24 289.697 418.24C286.161 418.24 283.419 419.351 281.469 421.572C279.52 423.793 278.545 427.035 278.545 431.296C278.545 435.512 279.52 438.776 281.469 441.088C283.419 443.4 286.161 444.556 289.697 444.556C291.193 444.556 292.735 444.261 294.321 443.672C295.953 443.083 297.472 442.108 298.877 440.748L300.849 444.624C299.444 446.075 297.699 447.185 295.613 447.956C293.528 448.727 291.443 449.112 289.357 449.112ZM323.517 449.112C318.168 449.112 313.952 447.571 310.869 444.488C307.786 441.36 306.245 437.031 306.245 431.5C306.245 427.919 306.925 424.813 308.285 422.184C309.645 419.509 311.549 417.447 313.997 415.996C316.445 414.5 319.256 413.752 322.429 413.752C325.557 413.752 328.186 414.409 330.317 415.724C332.448 417.039 334.08 418.92 335.213 421.368C336.346 423.771 336.913 426.627 336.913 429.936V431.976H310.461V428.508H333.309L332.153 429.392C332.153 425.765 331.337 422.932 329.705 420.892C328.073 418.852 325.648 417.832 322.429 417.832C319.029 417.832 316.377 419.033 314.473 421.436C312.569 423.793 311.617 426.989 311.617 431.024V431.636C311.617 435.897 312.66 439.139 314.745 441.36C316.876 443.536 319.845 444.624 323.653 444.624C325.693 444.624 327.597 444.329 329.365 443.74C331.178 443.105 332.901 442.085 334.533 440.68L336.437 444.556C334.941 446.007 333.037 447.14 330.725 447.956C328.458 448.727 326.056 449.112 323.517 449.112ZM357.037 449.112C354.317 449.112 351.779 448.749 349.421 448.024C347.064 447.253 345.115 446.188 343.573 444.828L345.477 440.952C347.155 442.267 348.968 443.241 350.917 443.876C352.912 444.511 354.975 444.828 357.105 444.828C359.825 444.828 361.865 444.352 363.225 443.4C364.631 442.403 365.333 441.043 365.333 439.32C365.333 438.005 364.88 436.963 363.973 436.192C363.112 435.376 361.684 434.741 359.689 434.288L353.365 432.996C350.464 432.361 348.288 431.296 346.837 429.8C345.387 428.259 344.661 426.309 344.661 423.952C344.661 421.957 345.183 420.212 346.225 418.716C347.268 417.175 348.787 415.973 350.781 415.112C352.776 414.205 355.111 413.752 357.785 413.752C360.279 413.752 362.568 414.137 364.653 414.908C366.784 415.633 368.552 416.699 369.957 418.104L367.985 421.912C366.625 420.597 365.061 419.623 363.293 418.988C361.571 418.308 359.78 417.968 357.921 417.968C355.247 417.968 353.229 418.512 351.869 419.6C350.555 420.643 349.897 422.025 349.897 423.748C349.897 425.063 350.305 426.151 351.121 427.012C351.983 427.828 353.297 428.44 355.065 428.848L361.389 430.14C364.472 430.82 366.761 431.885 368.257 433.336C369.799 434.741 370.569 436.645 370.569 439.048C370.569 441.088 370.003 442.879 368.869 444.42C367.736 445.916 366.149 447.072 364.109 447.888C362.115 448.704 359.757 449.112 357.037 449.112ZM391.112 449.112C388.392 449.112 385.853 448.749 383.496 448.024C381.138 447.253 379.189 446.188 377.648 444.828L379.552 440.952C381.229 442.267 383.042 443.241 384.992 443.876C386.986 444.511 389.049 444.828 391.18 444.828C393.9 444.828 395.94 444.352 397.3 443.4C398.705 442.403 399.408 441.043 399.408 439.32C399.408 438.005 398.954 436.963 398.048 436.192C397.186 435.376 395.758 434.741 393.764 434.288L387.44 432.996C384.538 432.361 382.362 431.296 380.912 429.8C379.461 428.259 378.736 426.309 378.736 423.952C378.736 421.957 379.257 420.212 380.3 418.716C381.342 417.175 382.861 415.973 384.856 415.112C386.85 414.205 389.185 413.752 391.86 413.752C394.353 413.752 396.642 414.137 398.728 414.908C400.858 415.633 402.626 416.699 404.032 418.104L402.06 421.912C400.7 420.597 399.136 419.623 397.368 418.988C395.645 418.308 393.854 417.968 391.996 417.968C389.321 417.968 387.304 418.512 385.944 419.6C384.629 420.643 383.972 422.025 383.972 423.748C383.972 425.063 384.38 426.151 385.196 427.012C386.057 427.828 387.372 428.44 389.14 428.848L395.464 430.14C398.546 430.82 400.836 431.885 402.332 433.336C403.873 434.741 404.644 436.645 404.644 439.048C404.644 441.088 404.077 442.879 402.944 444.42C401.81 445.916 400.224 447.072 398.184 447.888C396.189 448.704 393.832 449.112 391.112 449.112ZM414.51 435.988L412.81 400.56H419.61L417.91 435.988H414.51ZM412.742 448.5V441.564H419.678V448.5H412.742Z" fill="#212121"/>
<path d="M11.536 509.752C9.37067 509.752 7.56 509.351 6.104 508.548C4.648 507.745 3.556 506.588 2.828 505.076C2.1 503.564 1.736 501.753 1.736 499.644C1.736 497.553 2.11867 495.752 2.884 494.24C3.64933 492.728 4.75067 491.561 6.188 490.74C7.62533 489.919 9.36133 489.508 11.396 489.508C12.8333 489.508 14.0747 489.723 15.12 490.152C16.184 490.563 17.136 491.179 17.976 492L17.108 493.82C16.492 493.279 15.8947 492.849 15.316 492.532C14.756 492.215 14.168 491.981 13.552 491.832C12.936 491.664 12.2173 491.58 11.396 491.58C9.06267 491.58 7.27067 492.289 6.02 493.708C4.788 495.108 4.172 497.096 4.172 499.672C4.172 502.267 4.76933 504.255 5.964 505.636C7.17733 507.017 9.05333 507.708 11.592 507.708C12.5253 507.708 13.412 507.624 14.252 507.456C15.1107 507.269 15.9413 507.008 16.744 506.672L16.24 507.932V500.988H11.2V499.168H18.228V508.324C17.4253 508.753 16.408 509.099 15.176 509.36C13.9627 509.621 12.7493 509.752 11.536 509.752ZM22.7765 509.5V498.832C22.7765 498.272 22.7578 497.703 22.7205 497.124C22.7018 496.545 22.6645 495.985 22.6085 495.444H24.7925L25.0725 498.86L24.6805 498.888C24.8671 498.048 25.1938 497.357 25.6605 496.816C26.1271 496.275 26.6778 495.873 27.3125 495.612C27.9471 495.332 28.6098 495.192 29.3005 495.192C29.5805 495.192 29.8231 495.201 30.0285 495.22C30.2525 495.239 30.4578 495.285 30.6445 495.36L30.6165 497.376C30.3365 497.283 30.0751 497.227 29.8325 497.208C29.6085 497.171 29.3471 497.152 29.0485 497.152C28.2271 497.152 27.5085 497.348 26.8925 497.74C26.2951 498.132 25.8378 498.636 25.5205 499.252C25.2218 499.868 25.0725 500.521 25.0725 501.212V509.5H22.7765ZM39.2243 509.752C37.0216 509.752 35.2856 509.117 34.0163 507.848C32.7469 506.56 32.1123 504.777 32.1123 502.5C32.1123 501.025 32.3923 499.747 32.9523 498.664C33.5123 497.563 34.2963 496.713 35.3043 496.116C36.3123 495.5 37.4696 495.192 38.7763 495.192C40.0643 495.192 41.1469 495.463 42.0243 496.004C42.9016 496.545 43.5736 497.32 44.0403 498.328C44.5069 499.317 44.7403 500.493 44.7403 501.856V502.696H33.8483V501.268H43.2563L42.7803 501.632C42.7803 500.139 42.4443 498.972 41.7723 498.132C41.1003 497.292 40.1016 496.872 38.7763 496.872C37.3763 496.872 36.2843 497.367 35.5003 498.356C34.7163 499.327 34.3243 500.643 34.3243 502.304V502.556C34.3243 504.311 34.7536 505.645 35.6123 506.56C36.4896 507.456 37.7123 507.904 39.2803 507.904C40.1203 507.904 40.9043 507.783 41.6323 507.54C42.3789 507.279 43.0883 506.859 43.7603 506.28L44.5443 507.876C43.9283 508.473 43.1443 508.94 42.1923 509.276C41.2589 509.593 40.2696 509.752 39.2243 509.752ZM53.6987 509.752C52.4481 509.752 51.3561 509.463 50.4227 508.884C49.4894 508.287 48.7614 507.447 48.2387 506.364C47.7347 505.281 47.4827 503.984 47.4827 502.472C47.4827 500.941 47.7347 499.635 48.2387 498.552C48.7614 497.469 49.4894 496.639 50.4227 496.06C51.3561 495.481 52.4481 495.192 53.6987 495.192C54.9681 495.192 56.0601 495.519 56.9747 496.172C57.9081 496.807 58.5241 497.675 58.8227 498.776H58.4867L58.7947 495.444H60.9787C60.9227 495.985 60.8667 496.536 60.8107 497.096C60.7734 497.637 60.7547 498.169 60.7547 498.692V509.5H58.4867V506.196H58.7947C58.4961 507.297 57.8801 508.165 56.9467 508.8C56.0134 509.435 54.9307 509.752 53.6987 509.752ZM54.1467 507.904C55.4907 507.904 56.5547 507.447 57.3387 506.532C58.1227 505.599 58.5147 504.245 58.5147 502.472C58.5147 500.68 58.1227 499.327 57.3387 498.412C56.5547 497.479 55.4907 497.012 54.1467 497.012C52.8214 497.012 51.7574 497.479 50.9547 498.412C50.1707 499.327 49.7787 500.68 49.7787 502.472C49.7787 504.245 50.1707 505.599 50.9547 506.532C51.7574 507.447 52.8214 507.904 54.1467 507.904ZM70.2638 509.752C68.8825 509.752 67.8278 509.36 67.0998 508.576C66.3718 507.773 66.0078 506.569 66.0078 504.964V497.208H63.2638V495.444H66.0078V491.608L68.2758 490.964V495.444H72.3078V497.208H68.2758V504.712C68.2758 505.832 68.4625 506.635 68.8358 507.12C69.2278 507.587 69.8065 507.82 70.5718 507.82C70.9265 507.82 71.2438 507.792 71.5238 507.736C71.8038 507.661 72.0558 507.577 72.2798 507.484V509.388C72.0185 509.5 71.7011 509.584 71.3278 509.64C70.9731 509.715 70.6185 509.752 70.2638 509.752ZM82.6497 515.548V498.692C82.6497 498.169 82.6217 497.637 82.5657 497.096C82.5283 496.536 82.4817 495.985 82.4257 495.444H84.6097L84.9177 498.776H84.5817C84.8803 497.675 85.487 496.807 86.4017 496.172C87.3163 495.519 88.4083 495.192 89.6777 495.192C90.947 495.192 92.039 495.481 92.9537 496.06C93.887 496.639 94.615 497.469 95.1377 498.552C95.6603 499.635 95.9217 500.941 95.9217 502.472C95.9217 503.984 95.6603 505.281 95.1377 506.364C94.6337 507.447 93.915 508.287 92.9817 508.884C92.0483 509.463 90.947 509.752 89.6777 509.752C88.427 509.752 87.3443 509.435 86.4297 508.8C85.515 508.165 84.9083 507.297 84.6097 506.196H84.9177V515.548H82.6497ZM89.2297 507.904C90.5737 507.904 91.6377 507.447 92.4217 506.532C93.2243 505.599 93.6257 504.245 93.6257 502.472C93.6257 500.68 93.2243 499.327 92.4217 498.412C91.6377 497.479 90.5737 497.012 89.2297 497.012C87.9043 497.012 86.8403 497.479 86.0377 498.412C85.2537 499.327 84.8617 500.68 84.8617 502.472C84.8617 504.245 85.2537 505.599 86.0377 506.532C86.8403 507.447 87.9043 507.904 89.2297 507.904ZM104.535 509.752C102.873 509.752 101.613 509.295 100.755 508.38C99.9147 507.465 99.4947 506.065 99.4947 504.18V495.444H101.763V504.124C101.763 505.412 102.024 506.364 102.547 506.98C103.069 507.577 103.881 507.876 104.983 507.876C106.215 507.876 107.204 507.475 107.951 506.672C108.697 505.869 109.071 504.796 109.071 503.452V495.444H111.339V509.5H109.127V506.336H109.491C109.099 507.419 108.464 508.259 107.587 508.856C106.728 509.453 105.711 509.752 104.535 509.752ZM115.823 509.5V498.832C115.823 498.272 115.804 497.703 115.767 497.124C115.748 496.545 115.711 495.985 115.655 495.444H117.839L118.119 498.86L117.727 498.888C117.914 498.048 118.24 497.357 118.707 496.816C119.174 496.275 119.724 495.873 120.359 495.612C120.994 495.332 121.656 495.192 122.347 495.192C122.627 495.192 122.87 495.201 123.075 495.22C123.299 495.239 123.504 495.285 123.691 495.36L123.663 497.376C123.383 497.283 123.122 497.227 122.879 497.208C122.655 497.171 122.394 497.152 122.095 497.152C121.274 497.152 120.555 497.348 119.939 497.74C119.342 498.132 118.884 498.636 118.567 499.252C118.268 499.868 118.119 500.521 118.119 501.212V509.5H115.823ZM131.935 509.752C130.553 509.752 129.349 509.453 128.323 508.856C127.315 508.259 126.531 507.409 125.971 506.308C125.429 505.207 125.159 503.9 125.159 502.388C125.159 500.857 125.439 499.56 125.999 498.496C126.559 497.413 127.343 496.592 128.351 496.032C129.377 495.472 130.572 495.192 131.935 495.192C132.831 495.192 133.699 495.351 134.539 495.668C135.397 495.985 136.107 496.433 136.667 497.012L135.855 498.636C135.295 498.095 134.679 497.693 134.007 497.432C133.353 497.171 132.709 497.04 132.075 497.04C130.619 497.04 129.489 497.497 128.687 498.412C127.884 499.327 127.483 500.661 127.483 502.416C127.483 504.152 127.884 505.496 128.687 506.448C129.489 507.4 130.619 507.876 132.075 507.876C132.691 507.876 133.325 507.755 133.979 507.512C134.651 507.269 135.276 506.868 135.855 506.308L136.667 507.904C136.088 508.501 135.369 508.959 134.511 509.276C133.652 509.593 132.793 509.752 131.935 509.752ZM140.03 509.5V488.892H142.298V498.552H141.934C142.326 497.451 142.979 496.62 143.894 496.06C144.827 495.481 145.901 495.192 147.114 495.192C148.794 495.192 150.045 495.649 150.866 496.564C151.687 497.46 152.098 498.823 152.098 500.652V509.5H149.83V500.792C149.83 499.485 149.569 498.533 149.046 497.936C148.542 497.339 147.721 497.04 146.582 497.04C145.275 497.04 144.23 497.441 143.446 498.244C142.681 499.047 142.298 500.101 142.298 501.408V509.5H140.03ZM161.924 509.752C160.674 509.752 159.582 509.463 158.648 508.884C157.715 508.287 156.987 507.447 156.464 506.364C155.96 505.281 155.708 503.984 155.708 502.472C155.708 500.941 155.96 499.635 156.464 498.552C156.987 497.469 157.715 496.639 158.648 496.06C159.582 495.481 160.674 495.192 161.924 495.192C163.194 495.192 164.286 495.519 165.2 496.172C166.134 496.807 166.75 497.675 167.048 498.776H166.712L167.02 495.444H169.204C169.148 495.985 169.092 496.536 169.036 497.096C168.999 497.637 168.98 498.169 168.98 498.692V509.5H166.712V506.196H167.02C166.722 507.297 166.106 508.165 165.172 508.8C164.239 509.435 163.156 509.752 161.924 509.752ZM162.372 507.904C163.716 507.904 164.78 507.447 165.564 506.532C166.348 505.599 166.74 504.245 166.74 502.472C166.74 500.68 166.348 499.327 165.564 498.412C164.78 497.479 163.716 497.012 162.372 497.012C161.047 497.012 159.983 497.479 159.18 498.412C158.396 499.327 158.004 500.68 158.004 502.472C158.004 504.245 158.396 505.599 159.18 506.532C159.983 507.447 161.047 507.904 162.372 507.904ZM178.181 509.752C177.061 509.752 176.016 509.603 175.045 509.304C174.075 508.987 173.272 508.548 172.637 507.988L173.421 506.392C174.112 506.933 174.859 507.335 175.661 507.596C176.483 507.857 177.332 507.988 178.209 507.988C179.329 507.988 180.169 507.792 180.729 507.4C181.308 506.989 181.597 506.429 181.597 505.72C181.597 505.179 181.411 504.749 181.037 504.432C180.683 504.096 180.095 503.835 179.273 503.648L176.669 503.116C175.475 502.855 174.579 502.416 173.981 501.8C173.384 501.165 173.085 500.363 173.085 499.392C173.085 498.571 173.3 497.852 173.729 497.236C174.159 496.601 174.784 496.107 175.605 495.752C176.427 495.379 177.388 495.192 178.489 495.192C179.516 495.192 180.459 495.351 181.317 495.668C182.195 495.967 182.923 496.405 183.501 496.984L182.689 498.552C182.129 498.011 181.485 497.609 180.757 497.348C180.048 497.068 179.311 496.928 178.545 496.928C177.444 496.928 176.613 497.152 176.053 497.6C175.512 498.029 175.241 498.599 175.241 499.308C175.241 499.849 175.409 500.297 175.745 500.652C176.1 500.988 176.641 501.24 177.369 501.408L179.973 501.94C181.243 502.22 182.185 502.659 182.801 503.256C183.436 503.835 183.753 504.619 183.753 505.608C183.753 506.448 183.52 507.185 183.053 507.82C182.587 508.436 181.933 508.912 181.093 509.248C180.272 509.584 179.301 509.752 178.181 509.752ZM193.78 509.752C191.577 509.752 189.841 509.117 188.572 507.848C187.303 506.56 186.668 504.777 186.668 502.5C186.668 501.025 186.948 499.747 187.508 498.664C188.068 497.563 188.852 496.713 189.86 496.116C190.868 495.5 192.025 495.192 193.332 495.192C194.62 495.192 195.703 495.463 196.58 496.004C197.457 496.545 198.129 497.32 198.596 498.328C199.063 499.317 199.296 500.493 199.296 501.856V502.696H188.404V501.268H197.812L197.336 501.632C197.336 500.139 197 498.972 196.328 498.132C195.656 497.292 194.657 496.872 193.332 496.872C191.932 496.872 190.84 497.367 190.056 498.356C189.272 499.327 188.88 500.643 188.88 502.304V502.556C188.88 504.311 189.309 505.645 190.168 506.56C191.045 507.456 192.268 507.904 193.836 507.904C194.676 507.904 195.46 507.783 196.188 507.54C196.935 507.279 197.644 506.859 198.316 506.28L199.1 507.876C198.484 508.473 197.7 508.94 196.748 509.276C195.815 509.593 194.825 509.752 193.78 509.752ZM202.458 509.5V506.644H205.314V509.5H202.458ZM212.79 509.5V491.72H205.818V489.76H222.058V491.72H215.114V509.5H212.79ZM224.788 509.5V488.892H227.056V498.552H226.692C227.084 497.451 227.737 496.62 228.652 496.06C229.585 495.481 230.659 495.192 231.872 495.192C233.552 495.192 234.803 495.649 235.624 496.564C236.445 497.46 236.856 498.823 236.856 500.652V509.5H234.588V500.792C234.588 499.485 234.327 498.533 233.804 497.936C233.3 497.339 232.479 497.04 231.34 497.04C230.033 497.04 228.988 497.441 228.204 498.244C227.439 499.047 227.056 500.101 227.056 501.408V509.5H224.788ZM246.682 509.752C245.432 509.752 244.34 509.463 243.406 508.884C242.473 508.287 241.745 507.447 241.222 506.364C240.718 505.281 240.466 503.984 240.466 502.472C240.466 500.941 240.718 499.635 241.222 498.552C241.745 497.469 242.473 496.639 243.406 496.06C244.34 495.481 245.432 495.192 246.682 495.192C247.952 495.192 249.044 495.519 249.958 496.172C250.892 496.807 251.508 497.675 251.806 498.776H251.47L251.778 495.444H253.962C253.906 495.985 253.85 496.536 253.794 497.096C253.757 497.637 253.738 498.169 253.738 498.692V509.5H251.47V506.196H251.778C251.48 507.297 250.864 508.165 249.93 508.8C248.997 509.435 247.914 509.752 246.682 509.752ZM247.13 507.904C248.474 507.904 249.538 507.447 250.322 506.532C251.106 505.599 251.498 504.245 251.498 502.472C251.498 500.68 251.106 499.327 250.322 498.412C249.538 497.479 248.474 497.012 247.13 497.012C245.805 497.012 244.741 497.479 243.938 498.412C243.154 499.327 242.762 500.68 242.762 502.472C242.762 504.245 243.154 505.599 243.938 506.532C244.741 507.447 245.805 507.904 247.13 507.904ZM258.263 509.5V498.692C258.263 498.169 258.235 497.637 258.179 497.096C258.142 496.536 258.095 495.985 258.039 495.444H260.223L260.503 498.524H260.167C260.578 497.441 261.231 496.62 262.127 496.06C263.042 495.481 264.097 495.192 265.291 495.192C266.953 495.192 268.203 495.64 269.043 496.536C269.902 497.413 270.331 498.804 270.331 500.708V509.5H268.063V500.848C268.063 499.523 267.793 498.561 267.251 497.964C266.729 497.348 265.907 497.04 264.787 497.04C263.481 497.04 262.445 497.441 261.679 498.244C260.914 499.047 260.531 500.12 260.531 501.464V509.5H258.263ZM274.81 509.5V488.892H277.078V501.688H277.134L283.658 495.444H286.514L278.814 502.78L278.87 501.632L287.242 509.5H284.302L277.134 502.892H277.078V509.5H274.81ZM296.24 515.856L295.708 513.98C296.586 513.775 297.314 513.532 297.892 513.252C298.49 512.991 298.984 512.636 299.376 512.188C299.768 511.74 300.104 511.18 300.384 510.508L301.112 508.856L301.056 509.808L294.924 495.444H297.388L302.456 507.792H301.728L306.74 495.444H309.12L302.624 510.676C302.251 511.572 301.84 512.319 301.392 512.916C300.944 513.532 300.459 514.027 299.936 514.4C299.432 514.792 298.872 515.1 298.256 515.324C297.64 515.548 296.968 515.725 296.24 515.856ZM317.392 509.752C316.048 509.752 314.872 509.463 313.864 508.884C312.875 508.287 312.109 507.447 311.568 506.364C311.027 505.263 310.756 503.965 310.756 502.472C310.756 500.96 311.027 499.663 311.568 498.58C312.109 497.497 312.875 496.667 313.864 496.088C314.872 495.491 316.048 495.192 317.392 495.192C318.755 495.192 319.931 495.491 320.92 496.088C321.928 496.667 322.703 497.497 323.244 498.58C323.804 499.663 324.084 500.96 324.084 502.472C324.084 503.965 323.804 505.263 323.244 506.364C322.703 507.447 321.928 508.287 320.92 508.884C319.931 509.463 318.755 509.752 317.392 509.752ZM317.392 507.904C318.736 507.904 319.8 507.447 320.584 506.532C321.368 505.599 321.76 504.245 321.76 502.472C321.76 500.68 321.359 499.327 320.556 498.412C319.772 497.479 318.717 497.012 317.392 497.012C316.067 497.012 315.012 497.479 314.228 498.412C313.444 499.327 313.052 500.68 313.052 502.472C313.052 504.245 313.444 505.599 314.228 506.532C315.012 507.447 316.067 507.904 317.392 507.904ZM332.716 509.752C331.055 509.752 329.795 509.295 328.936 508.38C328.096 507.465 327.676 506.065 327.676 504.18V495.444H329.944V504.124C329.944 505.412 330.205 506.364 330.728 506.98C331.251 507.577 332.063 507.876 333.164 507.876C334.396 507.876 335.385 507.475 336.132 506.672C336.879 505.869 337.252 504.796 337.252 503.452V495.444H339.52V509.5H337.308V506.336H337.672C337.28 507.419 336.645 508.259 335.768 508.856C334.909 509.453 333.892 509.752 332.716 509.752ZM352.229 509.5V497.208H349.485V495.444H352.845L352.229 496.032V493.68C352.229 492.093 352.63 490.88 353.433 490.04C354.236 489.2 355.384 488.78 356.877 488.78C357.25 488.78 357.633 488.817 358.025 488.892C358.436 488.948 358.772 489.032 359.033 489.144V491.02C358.809 490.927 358.529 490.852 358.193 490.796C357.876 490.721 357.549 490.684 357.213 490.684C356.634 490.684 356.14 490.805 355.729 491.048C355.318 491.272 355.01 491.617 354.805 492.084C354.6 492.551 354.497 493.148 354.497 493.876V495.92L354.133 495.444H358.417V497.208H354.497V509.5H352.229ZM366.487 509.752C365.143 509.752 363.967 509.463 362.959 508.884C361.97 508.287 361.205 507.447 360.663 506.364C360.122 505.263 359.851 503.965 359.851 502.472C359.851 500.96 360.122 499.663 360.663 498.58C361.205 497.497 361.97 496.667 362.959 496.088C363.967 495.491 365.143 495.192 366.487 495.192C367.85 495.192 369.026 495.491 370.015 496.088C371.023 496.667 371.798 497.497 372.339 498.58C372.899 499.663 373.179 500.96 373.179 502.472C373.179 503.965 372.899 505.263 372.339 506.364C371.798 507.447 371.023 508.287 370.015 508.884C369.026 509.463 367.85 509.752 366.487 509.752ZM366.487 507.904C367.831 507.904 368.895 507.447 369.679 506.532C370.463 505.599 370.855 504.245 370.855 502.472C370.855 500.68 370.454 499.327 369.651 498.412C368.867 497.479 367.813 497.012 366.487 497.012C365.162 497.012 364.107 497.479 363.323 498.412C362.539 499.327 362.147 500.68 362.147 502.472C362.147 504.245 362.539 505.599 363.323 506.532C364.107 507.447 365.162 507.904 366.487 507.904ZM376.799 509.5V498.832C376.799 498.272 376.781 497.703 376.743 497.124C376.725 496.545 376.687 495.985 376.631 495.444H378.815L379.095 498.86L378.703 498.888C378.89 498.048 379.217 497.357 379.683 496.816C380.15 496.275 380.701 495.873 381.335 495.612C381.97 495.332 382.633 495.192 383.323 495.192C383.603 495.192 383.846 495.201 384.051 495.22C384.275 495.239 384.481 495.285 384.667 495.36L384.639 497.376C384.359 497.283 384.098 497.227 383.855 497.208C383.631 497.171 383.37 497.152 383.071 497.152C382.25 497.152 381.531 497.348 380.915 497.74C380.318 498.132 379.861 498.636 379.543 499.252C379.245 499.868 379.095 500.521 379.095 501.212V509.5H376.799ZM394.048 515.856L393.516 513.98C394.393 513.775 395.121 513.532 395.7 513.252C396.297 512.991 396.792 512.636 397.184 512.188C397.576 511.74 397.912 511.18 398.192 510.508L398.92 508.856L398.864 509.808L392.732 495.444H395.196L400.264 507.792H399.536L404.548 495.444H406.928L400.432 510.676C400.059 511.572 399.648 512.319 399.2 512.916C398.752 513.532 398.267 514.027 397.744 514.4C397.24 514.792 396.68 515.1 396.064 515.324C395.448 515.548 394.776 515.725 394.048 515.856ZM415.2 509.752C413.856 509.752 412.68 509.463 411.672 508.884C410.682 508.287 409.917 507.447 409.376 506.364C408.834 505.263 408.564 503.965 408.564 502.472C408.564 500.96 408.834 499.663 409.376 498.58C409.917 497.497 410.682 496.667 411.672 496.088C412.68 495.491 413.856 495.192 415.2 495.192C416.562 495.192 417.738 495.491 418.728 496.088C419.736 496.667 420.51 497.497 421.052 498.58C421.612 499.663 421.892 500.96 421.892 502.472C421.892 503.965 421.612 505.263 421.052 506.364C420.51 507.447 419.736 508.287 418.728 508.884C417.738 509.463 416.562 509.752 415.2 509.752ZM415.2 507.904C416.544 507.904 417.608 507.447 418.392 506.532C419.176 505.599 419.568 504.245 419.568 502.472C419.568 500.68 419.166 499.327 418.364 498.412C417.58 497.479 416.525 497.012 415.2 497.012C413.874 497.012 412.82 497.479 412.036 498.412C411.252 499.327 410.86 500.68 410.86 502.472C410.86 504.245 411.252 505.599 412.036 506.532C412.82 507.447 413.874 507.904 415.2 507.904ZM430.524 509.752C428.862 509.752 427.602 509.295 426.744 508.38C425.904 507.465 425.484 506.065 425.484 504.18V495.444H427.752V504.124C427.752 505.412 428.013 506.364 428.536 506.98C429.058 507.577 429.87 507.876 430.972 507.876C432.204 507.876 433.193 507.475 433.94 506.672C434.686 505.869 435.06 504.796 435.06 503.452V495.444H437.328V509.5H435.116V506.336H435.48C435.088 507.419 434.453 508.259 433.576 508.856C432.717 509.453 431.7 509.752 430.524 509.752ZM441.812 509.5V498.832C441.812 498.272 441.793 497.703 441.756 497.124C441.737 496.545 441.7 495.985 441.644 495.444H443.828L444.108 498.86L443.716 498.888C443.902 498.048 444.229 497.357 444.696 496.816C445.162 496.275 445.713 495.873 446.348 495.612C446.982 495.332 447.645 495.192 448.336 495.192C448.616 495.192 448.858 495.201 449.064 495.22C449.288 495.239 449.493 495.285 449.68 495.36L449.652 497.376C449.372 497.283 449.11 497.227 448.868 497.208C448.644 497.171 448.382 497.152 448.084 497.152C447.262 497.152 446.544 497.348 445.928 497.74C445.33 498.132 444.873 498.636 444.556 499.252C444.257 499.868 444.108 500.521 444.108 501.212V509.5H441.812ZM459.62 515.548V498.692C459.62 498.169 459.592 497.637 459.536 497.096C459.499 496.536 459.452 495.985 459.396 495.444H461.58L461.888 498.776H461.552C461.851 497.675 462.458 496.807 463.372 496.172C464.287 495.519 465.379 495.192 466.648 495.192C467.918 495.192 469.01 495.481 469.924 496.06C470.858 496.639 471.586 497.469 472.108 498.552C472.631 499.635 472.892 500.941 472.892 502.472C472.892 503.984 472.631 505.281 472.108 506.364C471.604 507.447 470.886 508.287 469.952 508.884C469.019 509.463 467.918 509.752 466.648 509.752C465.398 509.752 464.315 509.435 463.4 508.8C462.486 508.165 461.879 507.297 461.58 506.196H461.888V515.548H459.62ZM466.2 507.904C467.544 507.904 468.608 507.447 469.392 506.532C470.195 505.599 470.596 504.245 470.596 502.472C470.596 500.68 470.195 499.327 469.392 498.412C468.608 497.479 467.544 497.012 466.2 497.012C464.875 497.012 463.811 497.479 463.008 498.412C462.224 499.327 461.832 500.68 461.832 502.472C461.832 504.245 462.224 505.599 463.008 506.532C463.811 507.447 464.875 507.904 466.2 507.904ZM481.505 509.752C479.844 509.752 478.584 509.295 477.725 508.38C476.885 507.465 476.465 506.065 476.465 504.18V495.444H478.733V504.124C478.733 505.412 478.995 506.364 479.517 506.98C480.04 507.577 480.852 507.876 481.953 507.876C483.185 507.876 484.175 507.475 484.921 506.672C485.668 505.869 486.041 504.796 486.041 503.452V495.444H488.309V509.5H486.097V506.336H486.461C486.069 507.419 485.435 508.259 484.557 508.856C483.699 509.453 482.681 509.752 481.505 509.752ZM492.794 509.5V498.832C492.794 498.272 492.775 497.703 492.738 497.124C492.719 496.545 492.682 495.985 492.626 495.444H494.81L495.09 498.86L494.698 498.888C494.884 498.048 495.211 497.357 495.678 496.816C496.144 496.275 496.695 495.873 497.33 495.612C497.964 495.332 498.627 495.192 499.318 495.192C499.598 495.192 499.84 495.201 500.046 495.22C500.27 495.239 500.475 495.285 500.662 495.36L500.634 497.376C500.354 497.283 500.092 497.227 499.85 497.208C499.626 497.171 499.364 497.152 499.066 497.152C498.244 497.152 497.526 497.348 496.91 497.74C496.312 498.132 495.855 498.636 495.538 499.252C495.239 499.868 495.09 500.521 495.09 501.212V509.5H492.794ZM508.905 509.752C507.524 509.752 506.32 509.453 505.293 508.856C504.285 508.259 503.501 507.409 502.941 506.308C502.4 505.207 502.129 503.9 502.129 502.388C502.129 500.857 502.409 499.56 502.969 498.496C503.529 497.413 504.313 496.592 505.321 496.032C506.348 495.472 507.543 495.192 508.905 495.192C509.801 495.192 510.669 495.351 511.509 495.668C512.368 495.985 513.077 496.433 513.637 497.012L512.825 498.636C512.265 498.095 511.649 497.693 510.977 497.432C510.324 497.171 509.68 497.04 509.045 497.04C507.589 497.04 506.46 497.497 505.657 498.412C504.855 499.327 504.453 500.661 504.453 502.416C504.453 504.152 504.855 505.496 505.657 506.448C506.46 507.4 507.589 507.876 509.045 507.876C509.661 507.876 510.296 507.755 510.949 507.512C511.621 507.269 512.247 506.868 512.825 506.308L513.637 507.904C513.059 508.501 512.34 508.959 511.481 509.276C510.623 509.593 509.764 509.752 508.905 509.752ZM517.001 509.5V488.892H519.269V498.552H518.905C519.297 497.451 519.95 496.62 520.865 496.06C521.798 495.481 522.871 495.192 524.085 495.192C525.765 495.192 527.015 495.649 527.837 496.564C528.658 497.46 529.069 498.823 529.069 500.652V509.5H526.801V500.792C526.801 499.485 526.539 498.533 526.017 497.936C525.513 497.339 524.691 497.04 523.553 497.04C522.246 497.04 521.201 497.441 520.417 498.244C519.651 499.047 519.269 500.101 519.269 501.408V509.5H517.001ZM538.895 509.752C537.644 509.752 536.552 509.463 535.619 508.884C534.686 508.287 533.958 507.447 533.435 506.364C532.931 505.281 532.679 503.984 532.679 502.472C532.679 500.941 532.931 499.635 533.435 498.552C533.958 497.469 534.686 496.639 535.619 496.06C536.552 495.481 537.644 495.192 538.895 495.192C540.164 495.192 541.256 495.519 542.171 496.172C543.104 496.807 543.72 497.675 544.019 498.776H543.683L543.991 495.444H546.175C546.119 495.985 546.063 496.536 546.007 497.096C545.97 497.637 545.951 498.169 545.951 498.692V509.5H543.683V506.196H543.991C543.692 507.297 543.076 508.165 542.143 508.8C541.21 509.435 540.127 509.752 538.895 509.752ZM539.343 507.904C540.687 507.904 541.751 507.447 542.535 506.532C543.319 505.599 543.711 504.245 543.711 502.472C543.711 500.68 543.319 499.327 542.535 498.412C541.751 497.479 540.687 497.012 539.343 497.012C538.018 497.012 536.954 497.479 536.151 498.412C535.367 499.327 534.975 500.68 534.975 502.472C534.975 504.245 535.367 505.599 536.151 506.532C536.954 507.447 538.018 507.904 539.343 507.904ZM555.152 509.752C554.032 509.752 552.987 509.603 552.016 509.304C551.045 508.987 550.243 508.548 549.608 507.988L550.392 506.392C551.083 506.933 551.829 507.335 552.632 507.596C553.453 507.857 554.303 507.988 555.18 507.988C556.3 507.988 557.14 507.792 557.7 507.4C558.279 506.989 558.568 506.429 558.568 505.72C558.568 505.179 558.381 504.749 558.008 504.432C557.653 504.096 557.065 503.835 556.244 503.648L553.64 503.116C552.445 502.855 551.549 502.416 550.952 501.8C550.355 501.165 550.056 500.363 550.056 499.392C550.056 498.571 550.271 497.852 550.7 497.236C551.129 496.601 551.755 496.107 552.576 495.752C553.397 495.379 554.359 495.192 555.46 495.192C556.487 495.192 557.429 495.351 558.288 495.668C559.165 495.967 559.893 496.405 560.472 496.984L559.66 498.552C559.1 498.011 558.456 497.609 557.728 497.348C557.019 497.068 556.281 496.928 555.516 496.928C554.415 496.928 553.584 497.152 553.024 497.6C552.483 498.029 552.212 498.599 552.212 499.308C552.212 499.849 552.38 500.297 552.716 500.652C553.071 500.988 553.612 501.24 554.34 501.408L556.944 501.94C558.213 502.22 559.156 502.659 559.772 503.256C560.407 503.835 560.724 504.619 560.724 505.608C560.724 506.448 560.491 507.185 560.024 507.82C559.557 508.436 558.904 508.912 558.064 509.248C557.243 509.584 556.272 509.752 555.152 509.752ZM570.751 509.752C568.548 509.752 566.812 509.117 565.543 507.848C564.273 506.56 563.639 504.777 563.639 502.5C563.639 501.025 563.919 499.747 564.479 498.664C565.039 497.563 565.823 496.713 566.831 496.116C567.839 495.5 568.996 495.192 570.303 495.192C571.591 495.192 572.673 495.463 573.551 496.004C574.428 496.545 575.1 497.32 575.567 498.328C576.033 499.317 576.267 500.493 576.267 501.856V502.696H565.375V501.268H574.783L574.307 501.632C574.307 500.139 573.971 498.972 573.299 498.132C572.627 497.292 571.628 496.872 570.303 496.872C568.903 496.872 567.811 497.367 567.027 498.356C566.243 499.327 565.851 500.643 565.851 502.304V502.556C565.851 504.311 566.28 505.645 567.139 506.56C568.016 507.456 569.239 507.904 570.807 507.904C571.647 507.904 572.431 507.783 573.159 507.54C573.905 507.279 574.615 506.859 575.287 506.28L576.071 507.876C575.455 508.473 574.671 508.94 573.719 509.276C572.785 509.593 571.796 509.752 570.751 509.752Z" fill="#202124"/>
</svg>
