<svg width="24" height="21" viewBox="0 0 24 21" fill="none" xmlns="http://www.w3.org/2000/svg">
<path d="M12.2086 20.8343C12.0558 20.8343 11.9083 20.7957 11.7935 20.7258C11.3523 20.4533 0.940918 14.0149 0.940918 7.81276C0.940918 5.74069 2.12815 3.75349 4.24142 2.28831C6.3547 0.823127 9.22094 0 12.2096 0C15.1982 0 18.0644 0.823127 20.1777 2.28831C22.2909 3.75349 23.4782 5.74069 23.4782 7.81276C23.4782 14.0149 13.0668 20.4533 12.6237 20.7258C12.5089 20.7957 12.3613 20.8343 12.2086 20.8343ZM12.2086 0.86824C9.55288 0.870079 7.00672 1.60233 5.12886 2.90428C3.25102 4.20622 2.19487 5.97152 2.19221 7.81276C2.19221 12.9569 10.2695 18.5403 12.2086 19.8082C14.1477 18.5403 22.2249 12.9499 22.2249 7.81276C22.2223 5.97152 21.1661 4.20622 19.2883 2.90428C17.4104 1.60233 14.8643 0.870079 12.2086 0.86824Z" fill="#47557B"/>
<path d="M12.2085 12.1533C10.9703 12.1533 9.75987 11.8987 8.73034 11.4218C7.70081 10.9448 6.8984 10.267 6.42455 9.47383C5.9507 8.68071 5.82674 7.80798 6.06829 6.966C6.30985 6.12403 6.9061 5.35062 7.78164 4.74359C8.65718 4.13656 9.7727 3.72317 10.9871 3.55569C12.2015 3.38822 13.4603 3.47417 14.6042 3.80269C15.7482 4.13122 16.726 4.68755 17.4139 5.40134C18.1018 6.11513 18.4689 6.95433 18.4689 7.81279C18.4674 8.96362 17.8073 10.067 16.6335 10.8808C15.4598 11.6945 13.8684 12.1522 12.2085 12.1533ZM12.2085 4.34122C11.217 4.34122 10.2477 4.54507 9.42328 4.927C8.59887 5.30891 7.95632 5.85175 7.57688 6.48685C7.19744 7.12197 7.09816 7.82081 7.29161 8.49505C7.48504 9.16927 7.9625 9.7886 8.6636 10.2747C9.36471 10.7608 10.258 11.0918 11.2305 11.2259C12.2029 11.36 13.2109 11.2912 14.1269 11.0281C15.043 10.7651 15.8259 10.3196 16.3768 9.74799C16.9276 9.17639 17.2217 8.50439 17.2217 7.81696C17.2219 7.3604 17.0924 6.90828 16.8406 6.48644C16.5888 6.06458 16.2196 5.68125 15.754 5.35835C15.2885 5.03544 14.7358 4.77931 14.1274 4.60455C13.519 4.42979 12.867 4.33983 12.2085 4.33983V4.34122Z" fill="#47557B"/>
</svg>
