<svg width="442" height="75" viewBox="0 0 442 75" fill="none" xmlns="http://www.w3.org/2000/svg">
<line x1="43" y1="10" x2="399" y2="10" stroke="#6200EE" stroke-width="4"/>
<line x1="43" y1="10" x2="219" y2="10" stroke="#6200EE" stroke-width="4"/>
<circle cx="45" cy="12" r="12" fill="#481007"/>
<path d="M50.3334 8L43.0001 15.3333L39.6667 12" stroke="#F8F9FA" stroke-width="4" stroke-linecap="round" stroke-linejoin="round"/>
<circle cx="221" cy="12" r="12" fill="#481007"/>
<path d="M226.333 8L219 15.3333L215.667 12" stroke="#F8F9FA" stroke-width="4" stroke-linecap="round" stroke-linejoin="round"/>
<circle cx="397" cy="12" r="12" fill="#481007"/>
<path d="M402.333 8L395 15.3333L391.667 12" stroke="#F8F9FA" stroke-width="4" stroke-linecap="round" stroke-linejoin="round"/>
<path d="M2.408 68V48.26H9.1C11.3027 48.26 13.16 48.6427 14.672 49.408C16.2027 50.1733 17.36 51.2933 18.144 52.768C18.928 54.224 19.32 56.0067 19.32 58.116C19.32 60.2253 18.928 62.0173 18.144 63.492C17.36 64.9667 16.2027 66.0867 14.672 66.852C13.16 67.6173 11.3027 68 9.1 68H2.408ZM5.012 65.788H8.904C11.536 65.788 13.4867 65.1533 14.756 63.884C16.0253 62.6147 16.66 60.692 16.66 58.116C16.66 55.54 16.0253 53.6267 14.756 52.376C13.4867 51.1067 11.536 50.472 8.904 50.472H5.012V65.788ZM29.74 68.252C27.5 68.252 25.7267 67.608 24.42 66.32C23.132 65.032 22.488 63.2587 22.488 61C22.488 59.5067 22.768 58.2187 23.328 57.136C23.9067 56.0347 24.7 55.1853 25.708 54.588C26.716 53.972 27.892 53.664 29.236 53.664C30.524 53.664 31.616 53.944 32.512 54.504C33.408 55.0453 34.0893 55.82 34.556 56.828C35.0227 57.836 35.256 59.0307 35.256 60.412V61.252H24.476V59.74H33.52L33.044 60.104C33.044 58.648 32.7173 57.5187 32.064 56.716C31.4293 55.9133 30.4867 55.512 29.236 55.512C27.8733 55.512 26.8187 55.988 26.072 56.94C25.3253 57.8733 24.952 59.152 24.952 60.776V61.028C24.952 62.7453 25.372 64.0427 26.212 64.92C27.0707 65.7973 28.256 66.236 29.768 66.236C30.608 66.236 31.392 66.1147 32.12 65.872C32.848 65.6293 33.548 65.228 34.22 64.668L35.06 66.432C34.4253 67.0107 33.632 67.4587 32.68 67.776C31.7467 68.0933 30.7667 68.252 29.74 68.252ZM44.0225 68.252C42.5478 68.252 41.4278 67.8507 40.6625 67.048C39.9158 66.2267 39.5425 64.9947 39.5425 63.352V55.876H36.7985V53.916H39.5425V50.136L42.0905 49.436V53.916H46.0665V55.876H42.0905V63.128C42.0905 64.2107 42.2771 64.9853 42.6505 65.452C43.0425 65.9 43.6025 66.124 44.3305 66.124C44.7038 66.124 45.0211 66.096 45.2825 66.04C45.5625 65.9653 45.8145 65.8813 46.0385 65.788V67.888C45.7585 68 45.4318 68.084 45.0585 68.14C44.7038 68.2147 44.3585 68.252 44.0225 68.252ZM54.3149 68.252C53.0829 68.252 52.0003 67.9627 51.0669 67.384C50.1336 66.8053 49.4056 65.9653 48.8829 64.864C48.3603 63.7627 48.0989 62.456 48.0989 60.944C48.0989 59.432 48.3603 58.1347 48.8829 57.052C49.4056 55.9507 50.1336 55.1107 51.0669 54.532C52.0003 53.9533 53.0829 53.664 54.3149 53.664C55.5656 53.664 56.6483 53.9813 57.5629 54.616C58.4963 55.232 59.1123 56.0813 59.4109 57.164H59.0749L59.3829 53.916H61.8469C61.7909 54.476 61.7349 55.036 61.6789 55.596C61.6416 56.156 61.6229 56.7067 61.6229 57.248V68H59.0749V64.78H59.3829C59.0843 65.844 58.4683 66.6933 57.5349 67.328C56.6203 67.944 55.5469 68.252 54.3149 68.252ZM54.9029 66.236C56.1723 66.236 57.1896 65.788 57.9549 64.892C58.7203 63.996 59.1029 62.68 59.1029 60.944C59.1029 59.208 58.7203 57.9013 57.9549 57.024C57.1896 56.1467 56.1723 55.708 54.9029 55.708C53.6336 55.708 52.6069 56.1467 51.8229 57.024C51.0576 57.9013 50.6749 59.208 50.6749 60.944C50.6749 62.68 51.0576 63.996 51.8229 64.892C52.5883 65.788 53.6149 66.236 54.9029 66.236ZM66.0921 68V53.916H68.6401V68H66.0921ZM65.8681 50.836V48.092H68.8921V50.836H65.8681ZM73.1007 68V47.392H75.6487V68H73.1007ZM84.8692 68.252C83.7306 68.252 82.6666 68.1027 81.6772 67.804C80.7066 67.5053 79.9039 67.076 79.2692 66.516L80.0812 64.752C80.7719 65.2747 81.5279 65.676 82.3492 65.956C83.1892 66.2173 84.0479 66.348 84.9252 66.348C85.9892 66.348 86.7919 66.152 87.3332 65.76C87.8932 65.368 88.1732 64.8453 88.1732 64.192C88.1732 63.6693 87.9959 63.2493 87.6412 62.932C87.2866 62.6147 86.7266 62.3813 85.9612 62.232L83.3012 61.7C82.1066 61.42 81.2012 60.972 80.5852 60.356C79.9879 59.7213 79.6892 58.9093 79.6892 57.92C79.6892 57.0987 79.9132 56.3707 80.3612 55.736C80.8092 55.0827 81.4439 54.5787 82.2652 54.224C83.1052 53.8507 84.0852 53.664 85.2052 53.664C86.2319 53.664 87.1839 53.8133 88.0612 54.112C88.9572 54.4107 89.6946 54.8493 90.2732 55.428L89.4332 57.136C88.8546 56.632 88.2012 56.2493 87.4732 55.988C86.7639 55.708 86.0359 55.568 85.2892 55.568C84.2066 55.568 83.4039 55.7827 82.8812 56.212C82.3586 56.6227 82.0972 57.164 82.0972 57.836C82.0972 58.34 82.2559 58.76 82.5732 59.096C82.8906 59.4133 83.4039 59.656 84.1132 59.824L86.7732 60.356C88.0239 60.6173 88.9666 61.0467 89.6012 61.644C90.2359 62.2413 90.5532 63.0347 90.5532 64.024C90.5532 64.9013 90.3106 65.6573 89.8252 66.292C89.3586 66.9267 88.6959 67.412 87.8372 67.748C86.9972 68.084 86.0079 68.252 84.8692 68.252Z" fill="#202124"/>
<path d="M158.408 68V48.26H166.584C168.693 48.26 170.308 48.764 171.428 49.772C172.548 50.78 173.108 52.1707 173.108 53.944C173.108 55.7173 172.548 57.1173 171.428 58.144C170.308 59.152 168.693 59.656 166.584 59.656H161.012V68H158.408ZM161.012 57.528H166.332C167.713 57.528 168.759 57.22 169.468 56.604C170.177 55.9693 170.532 55.0827 170.532 53.944C170.532 52.8053 170.177 51.928 169.468 51.312C168.759 50.696 167.713 50.388 166.332 50.388H161.012V57.528ZM181.368 68.252C180.136 68.252 179.053 67.9627 178.12 67.384C177.187 66.8053 176.459 65.9653 175.936 64.864C175.413 63.7627 175.152 62.456 175.152 60.944C175.152 59.432 175.413 58.1347 175.936 57.052C176.459 55.9507 177.187 55.1107 178.12 54.532C179.053 53.9533 180.136 53.664 181.368 53.664C182.619 53.664 183.701 53.9813 184.616 54.616C185.549 55.232 186.165 56.0813 186.464 57.164H186.128L186.436 53.916H188.9C188.844 54.476 188.788 55.036 188.732 55.596C188.695 56.156 188.676 56.7067 188.676 57.248V68H186.128V64.78H186.436C186.137 65.844 185.521 66.6933 184.588 67.328C183.673 67.944 182.6 68.252 181.368 68.252ZM181.956 66.236C183.225 66.236 184.243 65.788 185.008 64.892C185.773 63.996 186.156 62.68 186.156 60.944C186.156 59.208 185.773 57.9013 185.008 57.024C184.243 56.1467 183.225 55.708 181.956 55.708C180.687 55.708 179.66 56.1467 178.876 57.024C178.111 57.9013 177.728 59.208 177.728 60.944C177.728 62.68 178.111 63.996 178.876 64.892C179.641 65.788 180.668 66.236 181.956 66.236ZM192.532 74.356L191.944 72.284C192.822 72.0787 193.55 71.836 194.128 71.556C194.707 71.2947 195.192 70.9493 195.584 70.52C195.976 70.0907 196.322 69.5493 196.62 68.896L197.32 67.216L197.264 68.28L191.132 53.916H193.876L198.776 65.984H198.048L202.948 53.916H205.58L199.112 69.092C198.72 70.0067 198.291 70.772 197.824 71.388C197.376 72.004 196.882 72.508 196.34 72.9C195.818 73.292 195.239 73.6 194.604 73.824C193.97 74.048 193.279 74.2253 192.532 74.356ZM208.165 68V57.248C208.165 56.7067 208.147 56.156 208.109 55.596C208.072 55.036 208.016 54.476 207.941 53.916H210.405L210.685 56.94H210.349C210.723 55.8947 211.32 55.092 212.141 54.532C212.963 53.9533 213.943 53.664 215.081 53.664C216.239 53.664 217.191 53.944 217.937 54.504C218.684 55.0453 219.188 55.904 219.449 57.08H219.029C219.384 56.0347 220.009 55.204 220.905 54.588C221.801 53.972 222.847 53.664 224.041 53.664C225.591 53.664 226.757 54.1213 227.541 55.036C228.325 55.932 228.718 57.332 228.718 59.236V68H226.169V59.376C226.169 58.088 225.945 57.164 225.497 56.604C225.049 56.0253 224.34 55.736 223.369 55.736C222.231 55.736 221.335 56.128 220.681 56.912C220.028 57.6773 219.701 58.7227 219.701 60.048V68H217.153V59.376C217.153 58.088 216.929 57.164 216.481 56.604C216.052 56.0253 215.343 55.736 214.353 55.736C213.215 55.736 212.319 56.128 211.665 56.912C211.031 57.6773 210.713 58.7227 210.713 60.048V68H208.165ZM239.496 68.252C237.256 68.252 235.483 67.608 234.176 66.32C232.888 65.032 232.244 63.2587 232.244 61C232.244 59.5067 232.524 58.2187 233.084 57.136C233.663 56.0347 234.456 55.1853 235.464 54.588C236.472 53.972 237.648 53.664 238.992 53.664C240.28 53.664 241.372 53.944 242.268 54.504C243.164 55.0453 243.846 55.82 244.312 56.828C244.779 57.836 245.012 59.0307 245.012 60.412V61.252H234.232V59.74H243.276L242.8 60.104C242.8 58.648 242.474 57.5187 241.82 56.716C241.186 55.9133 240.243 55.512 238.992 55.512C237.63 55.512 236.575 55.988 235.828 56.94C235.082 57.8733 234.708 59.152 234.708 60.776V61.028C234.708 62.7453 235.128 64.0427 235.968 64.92C236.827 65.7973 238.012 66.236 239.524 66.236C240.364 66.236 241.148 66.1147 241.876 65.872C242.604 65.6293 243.304 65.228 243.976 64.668L244.816 66.432C244.182 67.0107 243.388 67.4587 242.436 67.776C241.503 68.0933 240.523 68.252 239.496 68.252ZM248.542 68V57.248C248.542 56.7067 248.523 56.156 248.486 55.596C248.449 55.036 248.393 54.476 248.318 53.916H250.782L251.062 56.94H250.726C251.155 55.876 251.818 55.064 252.714 54.504C253.61 53.944 254.655 53.664 255.85 53.664C257.511 53.664 258.762 54.1213 259.602 55.036C260.442 55.932 260.862 57.332 260.862 59.236V68H258.314V59.376C258.314 58.088 258.062 57.164 257.558 56.604C257.054 56.0253 256.27 55.736 255.206 55.736C253.937 55.736 252.929 56.1187 252.182 56.884C251.454 57.6493 251.09 58.6853 251.09 59.992V68H248.542ZM270.494 68.252C269.02 68.252 267.9 67.8507 267.134 67.048C266.388 66.2267 266.014 64.9947 266.014 63.352V55.876H263.27V53.916H266.014V50.136L268.562 49.436V53.916H272.538V55.876H268.562V63.128C268.562 64.2107 268.749 64.9853 269.122 65.452C269.514 65.9 270.074 66.124 270.802 66.124C271.176 66.124 271.493 66.096 271.754 66.04C272.034 65.9653 272.286 65.8813 272.51 65.788V67.888C272.23 68 271.904 68.084 271.53 68.14C271.176 68.2147 270.83 68.252 270.494 68.252Z" fill="#202124"/>
<path d="M349.116 68.252C347.137 68.252 345.439 67.8413 344.02 67.02C342.62 66.1987 341.547 65.032 340.8 63.52C340.053 61.9893 339.68 60.188 339.68 58.116C339.68 56.044 340.053 54.252 340.8 52.74C341.547 51.228 342.62 50.0613 344.02 49.24C345.439 48.4187 347.137 48.008 349.116 48.008C350.535 48.008 351.795 48.2227 352.896 48.652C353.997 49.0627 354.959 49.6693 355.78 50.472L354.828 52.572C353.932 51.788 353.045 51.228 352.168 50.892C351.309 50.5373 350.311 50.36 349.172 50.36C346.988 50.36 345.317 51.032 344.16 52.376C343.003 53.72 342.424 55.6333 342.424 58.116C342.424 60.5987 343.003 62.5213 344.16 63.884C345.317 65.228 346.988 65.9 349.172 65.9C350.311 65.9 351.309 65.732 352.168 65.396C353.045 65.0413 353.932 64.472 354.828 63.688L355.78 65.76C354.959 66.5627 353.988 67.1787 352.868 67.608C351.767 68.0373 350.516 68.252 349.116 68.252ZM364.448 68.252C363.066 68.252 361.872 67.9627 360.864 67.384C359.856 66.7867 359.072 65.9467 358.512 64.864C357.952 63.7627 357.672 62.456 357.672 60.944C357.672 59.4507 357.952 58.1627 358.512 57.08C359.072 55.9787 359.856 55.1387 360.864 54.56C361.872 53.9627 363.066 53.664 364.448 53.664C365.829 53.664 367.024 53.9627 368.032 54.56C369.058 55.1387 369.842 55.9787 370.384 57.08C370.944 58.1627 371.224 59.4507 371.224 60.944C371.224 62.456 370.944 63.7627 370.384 64.864C369.842 65.9467 369.058 66.7867 368.032 67.384C367.024 67.9627 365.829 68.252 364.448 68.252ZM364.448 66.236C365.717 66.236 366.734 65.788 367.5 64.892C368.265 63.996 368.648 62.68 368.648 60.944C368.648 59.208 368.265 57.9013 367.5 57.024C366.734 56.1467 365.717 55.708 364.448 55.708C363.16 55.708 362.133 56.1467 361.368 57.024C360.621 57.9013 360.248 59.208 360.248 60.944C360.248 62.68 360.621 63.996 361.368 64.892C362.133 65.788 363.16 66.236 364.448 66.236ZM374.844 68V57.248C374.844 56.7067 374.826 56.156 374.788 55.596C374.751 55.036 374.695 54.476 374.62 53.916H377.084L377.364 56.94H377.028C377.458 55.876 378.12 55.064 379.016 54.504C379.912 53.944 380.958 53.664 382.152 53.664C383.814 53.664 385.064 54.1213 385.904 55.036C386.744 55.932 387.164 57.332 387.164 59.236V68H384.616V59.376C384.616 58.088 384.364 57.164 383.86 56.604C383.356 56.0253 382.572 55.736 381.508 55.736C380.239 55.736 379.231 56.1187 378.484 56.884C377.756 57.6493 377.392 58.6853 377.392 59.992V68H374.844ZM392.317 68V55.876H389.573V53.916H393.017L392.317 54.56V52.292C392.317 50.6493 392.718 49.408 393.521 48.568C394.342 47.7093 395.518 47.28 397.049 47.28C397.422 47.28 397.814 47.308 398.225 47.364C398.654 47.42 399.009 47.5133 399.289 47.644V49.716C399.065 49.6227 398.785 49.548 398.449 49.492C398.113 49.436 397.786 49.408 397.469 49.408C396.629 49.408 395.985 49.66 395.537 50.164C395.089 50.6493 394.865 51.4147 394.865 52.46V54.448L394.473 53.916H403.685V68H401.137V55.876H394.865V68H392.317ZM400.885 50.836V48.092H403.909V50.836H400.885ZM408.111 68V57.36C408.111 56.8 408.092 56.2307 408.055 55.652C408.036 55.0547 407.99 54.476 407.915 53.916H410.379L410.687 57.444L410.267 57.472C410.454 56.6133 410.771 55.904 411.219 55.344C411.686 54.7653 412.236 54.3453 412.871 54.084C413.524 53.804 414.196 53.664 414.887 53.664C415.186 53.664 415.438 53.6733 415.643 53.692C415.848 53.7107 416.054 53.7573 416.259 53.832L416.203 56.1C415.923 55.988 415.662 55.9227 415.419 55.904C415.195 55.8667 414.915 55.848 414.579 55.848C413.758 55.848 413.048 56.0347 412.451 56.408C411.872 56.7813 411.424 57.276 411.107 57.892C410.808 58.508 410.659 59.1707 410.659 59.88V68H408.111ZM418.702 68V57.248C418.702 56.7067 418.684 56.156 418.646 55.596C418.609 55.036 418.553 54.476 418.478 53.916H420.942L421.222 56.94H420.886C421.26 55.8947 421.857 55.092 422.678 54.532C423.5 53.9533 424.48 53.664 425.618 53.664C426.776 53.664 427.728 53.944 428.474 54.504C429.221 55.0453 429.725 55.904 429.986 57.08H429.566C429.921 56.0347 430.546 55.204 431.442 54.588C432.338 53.972 433.384 53.664 434.578 53.664C436.128 53.664 437.294 54.1213 438.078 55.036C438.862 55.932 439.254 57.332 439.254 59.236V68H436.706V59.376C436.706 58.088 436.482 57.164 436.034 56.604C435.586 56.0253 434.877 55.736 433.906 55.736C432.768 55.736 431.872 56.128 431.218 56.912C430.565 57.6773 430.238 58.7227 430.238 60.048V68H427.69V59.376C427.69 58.088 427.466 57.164 427.018 56.604C426.589 56.0253 425.88 55.736 424.89 55.736C423.752 55.736 422.856 56.128 422.202 56.912C421.568 57.6773 421.25 58.7227 421.25 60.048V68H418.702Z" fill="#202124"/>
</svg>
