<svg width="47" height="48" viewBox="0 0 47 48" fill="none" xmlns="http://www.w3.org/2000/svg">
<path d="M20.3 12H17.4V6H20.3V9.00001H26.1V12H23.2V15H20.3V12ZM26.1 48V45H23.2V48H26.1ZM23.2 3V0H17.4V3H20.3V6H23.2V3ZM46.4 0V18H43.5V15H31.9V0H46.4ZM43.5 12V3H34.8V12H43.5ZM2.9 18H0V21H5.8V18H2.9ZM2.9 27H5.8V30H8.70001V21H5.8V24H0V30H2.9V27ZM17.4 30V36H20.3V30H17.4ZM29 0H26.1V9.00001H29V0ZM29 15V12H26.1V15H29ZM37.7 9.00001H40.6V6H37.7V9.00001ZM8.70001 6H5.8V9.00001H8.70001V6ZM14.5 0V15H0V0H14.5ZM11.6 3H2.9V12H11.6V3ZM37.7 18V21H34.8V18H29V21H26.1V18H17.4V15H14.5V18H11.6V21H14.5V27H17.4V24H20.3V30H23.2V24H31.9V27H26.1V30H31.9V33H34.8V24H37.7V27H40.6V33H43.5V30H46.4V27H43.5V24H40.6V21H43.5V18H37.7ZM5.8 42H8.70001V39H5.8V42ZM0 33H14.5V48H0V33ZM2.9 45H11.6V36H2.9V45ZM37.7 36V33H34.8V36H37.7ZM37.7 39H34.8V42H31.9V39H29V36H31.9V33H26.1V30H23.2V36H20.3V39H17.4V48H20.3V45H23.2V42H29V48H31.9V45H34.8V48H40.6V45H43.5V42H37.7V39ZM11.6 30H14.5V27H11.6V30ZM40.6 36V39H43.5V42H46.4V33H43.5V36H40.6ZM46.4 48V45H43.5V48H46.4ZM46.4 24V21H43.5V24H46.4Z" fill="white"/>
</svg>
