<svg width="48" height="52" viewBox="0 0 48 52" fill="none" xmlns="http://www.w3.org/2000/svg">
<path d="M7.22986 51.8626C6.6003 51.8626 6.0293 51.6852 5.54615 51.344C5.063 51.0028 4.81411 50.5524 4.81411 50.0065V44.2743C3.39393 43.5509 2.35442 42.5 1.69558 41.1352C1.03674 39.7704 0.699997 38.3101 0.699997 36.7679V9.69012C0.714638 6.31905 2.58868 3.8624 6.32212 2.32017C10.0556 0.777939 16.0291 0 24.228 0C32.4269 0 38.2541 0.777939 41.9875 2.32017C45.7209 3.8624 47.595 6.31905 47.595 9.69012V36.7815C47.595 38.3237 47.2582 39.7841 46.5994 41.1489C45.9406 42.5137 44.901 43.5646 43.4809 44.2879V50.0201C43.4809 50.566 43.232 51.0164 42.7488 51.3576C42.2657 51.6988 41.6947 51.8762 41.0651 51.8762H39.6742C38.9861 51.8762 38.4005 51.6988 37.9173 51.3576C37.4342 51.0164 37.1853 50.566 37.1853 50.0201V46.2669H11.1097V50.0201C11.1097 50.566 10.8608 51.0164 10.3777 51.3576C9.89452 51.6988 9.30888 51.8762 8.62075 51.8762H7.22986V51.8626ZM5.10692 23.8159H43.1734V12.0103H5.10692V23.8159ZM12.8666 38.7605C13.994 38.7605 14.9456 38.392 15.7216 37.6686C16.4976 36.9453 16.8929 36.0582 16.8929 35.0073C16.8929 33.9564 16.4976 33.0692 15.7216 32.3459C14.9456 31.6225 13.994 31.254 12.8666 31.254C11.7393 31.254 10.7876 31.6225 10.0116 32.3459C9.23567 33.0692 8.84037 33.9564 8.84037 35.0073C8.84037 36.0582 9.23567 36.9453 10.0116 37.6686C10.7876 38.392 11.7393 38.7605 12.8666 38.7605ZM35.4137 38.7605C36.5411 38.7605 37.4927 38.392 38.2687 37.6686C39.0447 36.9453 39.44 36.0582 39.44 35.0073C39.44 33.9564 39.0447 33.0692 38.2687 32.3459C37.4927 31.6225 36.5411 31.254 35.4137 31.254C34.2864 31.254 33.3347 31.6225 32.5587 32.3459C31.7827 33.0692 31.3874 33.9564 31.3874 35.0073C31.3874 36.0582 31.7827 36.9453 32.5587 37.6686C33.3347 38.392 34.2864 38.7605 35.4137 38.7605Z" fill="#3B4042"/>
</svg>
