<svg width="33" height="27" viewBox="0 0 33 27" fill="none" xmlns="http://www.w3.org/2000/svg">
<path d="M31.2586 11.6548C30.9069 11.6548 30.6145 11.5424 30.3813 11.3178C30.1482 11.0931 30.0316 10.8146 30.0316 10.4825C30.0316 10.1503 30.1506 9.87419 30.3885 9.65404C30.6265 9.43389 30.9213 9.32382 31.273 9.32382C31.6248 9.32382 31.9172 9.43616 32.1503 9.66084C32.3834 9.88554 32.5 10.164 32.5 10.4961C32.5 10.8283 32.381 11.1044 32.1431 11.3246C31.9052 11.5447 31.6103 11.6548 31.2586 11.6548ZM30.0316 6.99287V0H32.5V6.99287H30.0316ZM13.1646 13.5584C11.3544 13.5584 9.87342 13.0145 8.72152 11.9267C7.56962 10.8389 6.99367 9.44037 6.99367 7.731C6.99367 6.02163 7.56962 4.62306 8.72152 3.53528C9.87342 2.4475 11.3544 1.90361 13.1646 1.90361C14.9747 1.90361 16.4557 2.4475 17.6076 3.53528C18.7595 4.62306 19.3354 6.02163 19.3354 7.731C19.3354 9.44037 18.7595 10.8389 17.6076 11.9267C16.4557 13.0145 14.9747 13.5584 13.1646 13.5584ZM0 26.029V22.3772C0 21.4707 0.239979 20.6484 0.719937 19.9102C1.19989 19.1721 1.89241 18.6217 2.79747 18.2591C4.85443 17.4045 6.68291 16.8023 8.28289 16.4527C9.88291 16.103 11.5079 15.9282 13.1579 15.9282C14.8079 15.9282 16.4283 16.103 18.019 16.4527C19.6097 16.8023 21.4335 17.4045 23.4905 18.2591C24.3956 18.6476 25.0949 19.2045 25.5886 19.9297C26.0823 20.6549 26.3291 21.4707 26.3291 22.3772V26.029H0ZM2.46835 23.698H23.8608V22.3772C23.8608 21.9628 23.7373 21.5678 23.4905 21.1923C23.2437 20.8167 22.9146 20.5383 22.5032 20.357C20.5559 19.5023 18.9103 18.939 17.5665 18.6671C16.2226 18.3951 14.7553 18.2591 13.1646 18.2591C11.5738 18.2591 10.0997 18.3951 8.74209 18.6671C7.38449 18.939 5.73207 19.5023 3.78481 20.357C3.37342 20.5383 3.05116 20.8167 2.81804 21.1923C2.58492 21.5678 2.46835 21.9628 2.46835 22.3772V23.698ZM13.1646 11.2274C14.2342 11.2274 15.1187 10.8972 15.818 10.2368C16.5174 9.57634 16.8671 8.74108 16.8671 7.731C16.8671 6.72092 16.5174 5.88566 15.818 5.22522C15.1187 4.56479 14.2342 4.23457 13.1646 4.23457C12.0949 4.23457 11.2104 4.56479 10.5111 5.22522C9.81171 5.88566 9.46203 6.72092 9.46203 7.731C9.46203 8.74108 9.81171 9.57634 10.5111 10.2368C11.2104 10.8972 12.0949 11.2274 13.1646 11.2274Z" fill="#EBF5FF"/>
</svg>
